<svg viewBox="0 0 64 64" xmlns="http://www.w3.org/2000/svg">
  <rect width="64" height="64" fill="#0a0a0a"/>
  <rect x="1" y="1" width="62" height="62" fill="none" stroke="#d4a23c" stroke-opacity="0.4" stroke-width="1"/>
  <g fill="#f5b13a">
    <rect x="3" y="3" width="2" height="2"/>
    <rect x="59" y="3" width="2" height="2"/>
    <rect x="3" y="59" width="2" height="2"/>
    <rect x="59" y="59" width="2" height="2"/>
    <rect x="10" y="9" width="44" height="5"/>
    <rect x="29.5" y="14" width="5" height="36"/>
    <rect x="10" y="50" width="44" height="5"/>
    <rect x="12" y="22" width="14" height="4"/>
    <rect x="12" y="22" width="4" height="9"/>
    <rect x="12" y="31" width="14" height="4"/>
    <rect x="22" y="31" width="4" height="9"/>
    <rect x="12" y="38" width="14" height="4"/>
    <rect x="38" y="22" width="4" height="20"/>
    <rect x="42" y="22" width="10" height="4"/>
    <rect x="48" y="22" width="4" height="10"/>
    <rect x="42" y="28" width="10" height="4"/>
  </g>
</svg>